# xmcd
#
# Track frame offsets:
#	150
#	16792
#	37918
#	56061
#	71352
#	86469
#	102206
#	118985
#	138048
#	157599
#	175135
#	191589
#	208643
#	223566
#	238256
#	257498
#	272145
#	287333
#	290127
#	293902
#	297689
#	300224
#
# Disc length: 4193 seconds
#
# Revision: 0
# Processed by: cddbd v1.5.1PL0 Copyright (c) Steve Scherf et al.
# Submitted via: EasyCDDAExtractor 8.0.1.1
#
DISCID=40105f16
DTITLE=Various Artist - CDX 367
DYEAR=2005
DGENRE=Country
TTITLE0=Ray Shupe and The Rubberband - Dream Big
TTITLE1=Tim McGraw - Drugs Or Jesus
TTITLE2=Van Zant - Help Somebody
TTITLE3=Hot Apple Pie - Hillbillies
TTITLE4=Cowboy Troy - I Play Chicken With The Train
TTITLE5=Trick Pony - It's A Heartache
TTITLE6=Jamie O'Neal - Somebody's Hero
TTITLE7=Josh Gracin - Stay With Me Brass Bed
TTITLE8=George Strait - You'll Be There
TTITLE9=Jerry Reed - Father Time And Gravity
TTITLE10=Jason Aldean - Hicktown Radio Edit
TTITLE11=Rhonda Vincent - I've Forgotten You
TTITLE12=Doug Stone - Only You And You Alone
TTITLE13=The Grascals - Viva Las Vegas
TTITLE14=Country Mile - Friday Night
TTITLE15=Joel Fry - I'll Drink The 5th
TTITLE16=The Rider - Let's Get Down To It
TTITLE17=Cable Guy - C Section Baby
TTITLE18=Cable Guy - Hank Williams Jr. High School
TTITLE19=Cable Guy - The Right To Bare Arms
TTITLE20=Cable Guy - WWJD
TTITLE21=Nancy Hays - If It Looks Like Love
EXTD=
EXTT0=
EXTT1=
EXTT2=
EXTT3=
EXTT4=
EXTT5=
EXTT6=
EXTT7=
EXTT8=
EXTT9=
EXTT10=
EXTT11=
EXTT12=
EXTT13=
EXTT14=
EXTT15=
EXTT16=
EXTT17=
EXTT18=
EXTT19=
EXTT20=
EXTT21=
PLAYORDER=
